<svg id="Layer_1" data-name="Layer 1" xmlns="http://www.w3.org/2000/svg" xmlns:xlink="http://www.w3.org/1999/xlink" viewBox="0 0 71.33 57.47"><defs><style>.cls-1{fill:url(#linear-gradient);}.cls-2{fill:#ffa912;}.cls-3{fill:url(#linear-gradient-2);}.cls-4{fill:#b2750c;}</style><linearGradient id="linear-gradient" y1="28.73" x2="39.64" y2="28.73" gradientUnits="userSpaceOnUse"><stop offset="0" stop-color="#fff" stop-opacity="0"/><stop offset="0.15" stop-color="#d2e4ff" stop-opacity="0.19"/><stop offset="0.38" stop-color="#90bcff" stop-opacity="0.48"/><stop offset="0.59" stop-color="#5b9cff" stop-opacity="0.7"/><stop offset="0.77" stop-color="#3585ff" stop-opacity="0.86"/><stop offset="0.92" stop-color="#1e77ff" stop-opacity="0.96"/><stop offset="1" stop-color="#1572ff"/></linearGradient><linearGradient id="linear-gradient-2" x1="4.48" y1="53.16" x2="39.64" y2="53.16" gradientUnits="userSpaceOnUse"><stop offset="0" stop-color="#fff" stop-opacity="0"/><stop offset="0.01" stop-color="#fcfdfe" stop-opacity="0.01"/><stop offset="0.45" stop-color="#7a99c7" stop-opacity="0.27"/><stop offset="0.79" stop-color="#2a5ba5" stop-opacity="0.44"/><stop offset="1" stop-color="#0c4499" stop-opacity="0.5"/></linearGradient></defs><title>dart-favicon</title><rect class="cls-1" width="39.64" height="57.47"/><path class="cls-2" d="M39.07,1.53a20,20,0,0,0-11.8,3.86V55.14A20,20,0,0,0,39.07,59,19.76,19.76,0,0,0,59,39.48V21.05A19.77,19.77,0,0,0,39.07,1.53Z" transform="translate(12.37 -1.53)"/><rect class="cls-2" x="39.64" width="12.56" height="57.47"/><rect class="cls-3" x="4.48" y="48.86" width="35.16" height="8.61"/><path class="cls-4" d="M39.83,50.39H27.27V59H39.83A19.32,19.32,0,0,0,59,39.48V30.87A19.32,19.32,0,0,1,39.83,50.39Z" transform="translate(12.37 -1.53)"/></svg>