<svg id="Layer_1" data-name="Layer 1" xmlns="http://www.w3.org/2000/svg" xmlns:xlink="http://www.w3.org/1999/xlink" viewBox="0 0 222.55 53.3"><defs><style>.cls-1{fill:url(#linear-gradient);}.cls-2{fill:#ffa912;}.cls-3{fill:url(#linear-gradient-2);}.cls-4{fill:#b2750c;}</style><linearGradient id="linear-gradient" y1="26.65" x2="52.31" y2="26.65" gradientUnits="userSpaceOnUse"><stop offset="0" stop-color="#fff" stop-opacity="0"/><stop offset="0.15" stop-color="#d2e4ff" stop-opacity="0.19"/><stop offset="0.38" stop-color="#90bcff" stop-opacity="0.48"/><stop offset="0.59" stop-color="#5b9cff" stop-opacity="0.7"/><stop offset="0.77" stop-color="#3585ff" stop-opacity="0.86"/><stop offset="0.92" stop-color="#1e77ff" stop-opacity="0.96"/><stop offset="1" stop-color="#1572ff"/></linearGradient><linearGradient id="linear-gradient-2" x1="5.91" y1="49.31" x2="52.31" y2="49.31" gradientUnits="userSpaceOnUse"><stop offset="0" stop-color="#fff" stop-opacity="0"/><stop offset="0.01" stop-color="#fcfdfe" stop-opacity="0.01"/><stop offset="0.45" stop-color="#7a99c7" stop-opacity="0.27"/><stop offset="0.79" stop-color="#2a5ba5" stop-opacity="0.44"/><stop offset="1" stop-color="#0c4499" stop-opacity="0.5"/></linearGradient></defs><title>dart</title><rect class="cls-1" width="52.31" height="53.3"/><rect class="cls-2" x="52.31" width="36.2" height="53.3" rx="18.1"/><rect class="cls-2" x="52.31" width="18.79" height="53.3"/><path d="M122.7,4.14h7.54L148,56.65h-7.08l-9.15-29.32c-1.89-5.87-3.58-11.64-5.26-17.7h-.32c-1.63,6.09-3.31,11.83-5.2,17.7l-9.25,29.32h-6.8Zm-8.43,31.18h24.18v5.34H114.27Z" transform="translate(-11.88 -3.35)"/><path d="M155.42,4.14h16.44c10.7,0,18.38,3.84,18.38,14.78,0,10.49-7.68,15.54-18.38,15.54H162.1V56.65h-6.68ZM170.9,29c8.18,0,12.67-3.31,12.67-10.12s-4.49-9.36-12.67-9.36h-8.8V29Zm-.35,3.59,5.23-3.46,16,27.48h-7.57Z" transform="translate(-11.88 -3.35)"/><path d="M211.87,9.8H196V4.14h38.45V9.8H218.55V56.65h-6.68Z" transform="translate(-11.88 -3.35)"/><rect class="cls-3" x="5.91" y="45.32" width="46.4" height="7.98"/><path class="cls-4" d="M64.2,48.67v8H83c9.62,0,17.41-8.1,17.41-18.1v-8c0,10-7.79,18.11-17.41,18.11Z" transform="translate(-11.88 -3.35)"/></svg>