<?xml version="1.0" encoding="utf-8"?>
<!-- Generator: Adobe Illustrator 19.0.0, SVG Export Plug-In . SVG Version: 6.00 Build 0)  -->
<svg version="1.1" id="Layer_1" xmlns="http://www.w3.org/2000/svg" xmlns:xlink="http://www.w3.org/1999/xlink" x="0px" y="0px"
	 viewBox="-757.8 1281.4 165.3 82.3" style="enable-background:new -757.8 1281.4 165.3 82.3;" xml:space="preserve">
<style type="text/css">
	.st0{fill:#F7F7F4;stroke:#CCCCCC;stroke-width:0.355;stroke-linejoin:bevel;}
	.st1{fill:#EFEEEA;stroke:#CCCCCC;stroke-width:0.355;stroke-linejoin:bevel;}
	.st2{fill:#FFFFFF;stroke:#CCCCCC;stroke-width:0.355;stroke-linejoin:bevel;}
	.st3{fill:#646464;}
	.st4{fill:#FFD242;stroke:#CCCCCC;stroke-width:0.355;stroke-linejoin:bevel;}
	.st5{fill:#FFFFFF;}
	.st6{fill:#FFC91D;stroke:#CCCCCC;stroke-width:0.355;stroke-linejoin:bevel;}
	.st7{fill:#3775A9;stroke:#CCCCCC;stroke-width:0.355;stroke-linejoin:bevel;}
	.st8{fill:#2F6491;stroke:#CCCCCC;stroke-width:0.355;stroke-linejoin:bevel;}
</style>
<path class="st0" d="M-715.2,1323.8l16.6,6l16.8-6.1l-16.6-6L-715.2,1323.8z M-698.5,1310.2l16.6,6l16.8-6.1l-16.6-6L-698.5,1310.2z
	"/>
<path class="st1" d="M-698.5,1310.2l16.6,6v19.5l-16.6-6V1310.2z"/>
<path class="st0" d="M-731.8,1349.6l16.6,6l16.8-6.1l-16.6-6L-731.8,1349.6z"/>
<path class="st1" d="M-731.8,1349.6l16.6,6v19.5l-16.6-6V1349.6z"/>
<path class="st0" d="M-731.8,1321.9l16.6,6l16.8-6.1l-16.6-6L-731.8,1321.9z"/>
<path class="st2" d="M-715.3,1327.9v19.5l16.8-6.1v-19.5L-715.3,1327.9z"/>
<path class="st1" d="M-731.8,1321.9l16.6,6v19.5l-16.6-6V1321.9z"/>
<path class="st3" d="M-715,1305.3L-715,1305.3c-1.7,0-3,1.4-3,3c0,0.2,0,0.4,0.1,0.6l-12.5,15.3l8.2,10l-4.1-10l10.7-13
	c0.2,0.1,0.5,0.1,0.8,0.1c0.3,0,0.5,0,0.8-0.1l5.7,6.9l5.7,2.1l-9.3-11.3c0-0.2,0.1-0.4,0.1-0.6
	C-712,1306.7-713.3,1305.3-715,1305.3L-715,1305.3L-715,1305.3z M-712.7,1297.5c0-1.3-0.9-2.3-2.2-2.3c-1.3,0-2.3,0.9-2.3,2.2
	c0,0,0,0.1,0,0.1v3.5c0,1.3,1.1,2.2,2.3,2.2c1.2,0,2.2-1,2.2-2.2V1297.5z M-713.8,1297.5v3.5c0,0.7-0.6,1.2-1.2,1.2
	c-0.7,0-1.2-0.6-1.2-1.2v-3.5c0-0.7,0.6-1.2,1.2-1.2C-714.3,1296.3-713.8,1296.8-713.8,1297.5z M-712.7,1285.5
	c0-1.3-0.9-2.3-2.2-2.3c-1.3,0-2.3,0.9-2.3,2.2c0,0,0,0.1,0,0.1v3.5c0,1.3,1.1,2.2,2.3,2.2c1.2,0,2.2-1,2.2-2.2V1285.5z
	 M-713.8,1285.5v3.5c0,0.7-0.6,1.2-1.2,1.2c-0.7,0-1.2-0.6-1.2-1.2v-3.5c0-0.7,0.6-1.2,1.2-1.2
	C-714.3,1284.3-713.8,1284.9-713.8,1285.5z"/>
<path class="st3" d="M-714.4,1289.8v6.9c0,0.3-0.2,0.6-0.6,0.6c-0.3,0-0.6-0.2-0.6-0.6v-6.9c0-0.3,0.2-0.6,0.6-0.6
	C-714.7,1289.2-714.4,1289.5-714.4,1289.8z M-714.4,1301.8v6.9c0,0.3-0.2,0.6-0.6,0.6c-0.3,0-0.6-0.2-0.6-0.6v-6.9
	c0-0.3,0.2-0.6,0.6-0.6C-714.7,1301.2-714.4,1301.5-714.4,1301.8z M-714.4,1277.8v6.9c0,0.3-0.2,0.6-0.6,0.6c-0.3,0-0.6-0.2-0.6-0.6
	v-6.9c0-0.3,0.2-0.6,0.6-0.6C-714.7,1277.2-714.4,1277.5-714.4,1277.8L-714.4,1277.8z"/>
<path class="st1" d="M-715.2,1355.7l16.6,6v19.5l-16.6-6L-715.2,1355.7z"/>
<path class="st0" d="M-715.2,1336l16.6,6l16.8-6.1l-16.6-6L-715.2,1336z"/>
<path class="st1" d="M-715.2,1336l16.6,6v19.5l-16.6-6L-715.2,1336z"/>
<path class="st2" d="M-631.9,1349.6v19.5l16.8-6.1v-19.5L-631.9,1349.6z"/>
<path class="st4" d="M-648.6,1355.6v19.5l16.8-6.1v-19.5L-648.6,1355.6z"/>
<path class="st5" d="M-634.8,1360.4c0,1.9-1.4,4-3.2,4.6c0,0,0,0,0,0c-1.8,0.6-3.2-0.4-3.2-2.3c0-1.9,1.4-4,3.2-4.6c0,0,0,0,0,0
	C-636.3,1357.5-634.8,1358.5-634.8,1360.4C-634.8,1360.4-634.8,1360.4-634.8,1360.4L-634.8,1360.4z"/>
<path class="st4" d="M-665.3,1361.7v19.5l16.8-6.1v-19.5L-665.3,1361.7z"/>
<path class="st2" d="M-681.9,1367.8v19.5l16.8-6.1v-19.5L-681.9,1367.8z"/>
<path class="st1" d="M-698.5,1361.7l16.6,6v19.5l-16.6-6V1361.7z"/>
<path class="st4" d="M-631.9,1329.9v19.5l16.8-6.1v-19.5L-631.9,1329.9z"/>
<path class="st6" d="M-648.5,1304.2l16.6,6l16.8-6.1l-16.6-6L-648.5,1304.2z"/>
<path class="st4" d="M-631.9,1310.2v19.5l16.8-6.1v-19.5L-631.9,1310.2z M-648.6,1335.9v19.5l16.8-6.1v-19.5L-648.6,1335.9z"/>
<path class="st7" d="M-648.6,1316.2v19.5l16.8-6.1v-19.5L-648.6,1316.2z"/>
<path class="st8" d="M-665.2,1290.5l16.6,6l16.8-6.1l-16.6-6L-665.2,1290.5z"/>
<path class="st7" d="M-648.6,1296.6v19.5l16.8-6.1v-19.5L-648.6,1296.6z"/>
<path class="st4" d="M-665.3,1342v19.5l16.8-6.1v-19.5L-665.3,1342z"/>
<path class="st7" d="M-665.3,1322.3v19.5l16.8-6.1v-19.5L-665.3,1322.3z M-681.9,1348.1v19.5l16.8-6.1v-19.5L-681.9,1348.1z"/>
<path class="st8" d="M-698.5,1342l16.6,6v19.5l-16.6-6V1342z M-698.5,1322.3l16.6,6l16.8-6.1l-16.6-6L-698.5,1322.3z"/>
<path class="st7" d="M-681.9,1328.4v19.5l16.8-6.1v-19.5L-681.9,1328.4z"/>
<path class="st8" d="M-698.5,1322.3l16.6,6v19.5l-16.6-6V1322.3z M-681.9,1296.6l16.6,6l16.8-6.1l-16.6-6L-681.9,1296.6z"/>
<path class="st7" d="M-665.3,1302.6v19.5l16.8-6.1v-19.5L-665.3,1302.6z"/>
<path class="st8" d="M-681.9,1296.6l16.6,6v19.5l-16.6-6V1296.6z"/>
<path class="st5" d="M-655.7,1308.9c0,1.9-1.4,4-3.2,4.6c0,0,0,0,0,0c-1.8,0.7-3.2-0.4-3.2-2.3c0,0,0,0,0,0c0-1.9,1.4-4,3.2-4.6
	c0,0,0,0,0,0C-657.2,1306-655.7,1307-655.7,1308.9C-655.7,1308.9-655.7,1308.9-655.7,1308.9z"/>
<path class="st3" d="M-712.2,1281.4l-6.3-2.2"/>
</svg>
